Metropolis-ThinItalic.ufo
<glyph name="exclam" format="2">
	<advance width="202"/>
	<unicode hex="0021"/>
	<outline>
		<contour>
			<point x="164" y="687" type="line"/>
			<point x="62" y="193" type="line"/>
			<point x="98" y="193" type="line"/>
			<point x="200" y="687" type="line"/>
		</contour>
		<contour>
			<point x="45" y="-12" type="curve"/>
			<point x="45" y="-12" type="line"/>
			<point x="61" y="-12"/>
			<point x="77" y="4"/>
			<point x="77" y="22" type="curve"/>
			<point x="77" y="36"/>
			<point x="67" y="48"/>
			<point x="51" y="48" type="curve"/>
			<point x="32" y="48"/>
			<point x="17" y="29"/>
			<point x="17" y="14" type="curve"/>
			<point x="17" y="-1"/>
			<point x="28" y="-12"/>
		</contour>
	</outline>
</glyph>
<glyph name="hyphen" format="2">
	<advance width="377"/>
	<unicode hex="002D"/>
	<outline>
		<contour>
			<point x="66" y="290" type="line"/>
			<point x="58" y="254" type="line"/>
			<point x="317" y="254" type="line"/>
			<point x="325" y="290" type="line"/>
		</contour>
	</outline>
</glyph>
<glyph name="slash" format="2">
	<advance width="479"/>
	<unicode hex="002F"/>
	<outline>
		<contour>
			<point x="496" y="743" type="line"/>
			<point x="-25" y="-74" type="line"/>
			<point x="15" y="-74" type="line"/>
			<point x="536" y="743" type="line"/>
		</contour>
	</outline>
</glyph>
<glyph name="five" format="2">
	<advance width="600"/>
	<unicode hex="0035"/>
	<outline>
		<contour>
			<point x="257" y="-12" type="curve"/>
			<point x="257" y="-12" type="line"/>
			<point x="390" y="-12"/>
			<point x="525" y="119"/>
			<point x="525" y="251" type="curve"/>
			<point x="525" y="346"/>
			<point x="453" y="418"/>
			<point x="351" y="418" type="curve"/>
			<point x="290" y="418"/>
			<point x="224" y="399"/>
			<point x="177" y="365" type="curve"/>
			<point x="245" y="651" type="line"/>
			<point x="587" y="651" type="line"/>
			<point x="594" y="687" type="line"/>
			<point x="217" y="687" type="line"/>
			<point x="137" y="341" type="line"/>
			<point x="170" y="322" type="line"/>
			<point x="226" y="359"/>
			<point x="289" y="382"/>
			<point x="342" y="382" type="curve"/>
			<point x="428" y="382"/>
			<point x="489" y="322"/>
			<point x="489" y="245" type="curve"/>
			<point x="489" y="137"/>
			<point x="374" y="24"/>
			<point x="259" y="24" type="curve"/>
			<point x="177" y="24"/>
			<point x="103" y="60"/>
			<point x="61" y="123" type="curve"/>
			<point x="33" y="98" type="line"/>
			<point x="79" y="29"/>
			<point x="162" y="-12"/>
		</contour>
	</outline>
</glyph>
<glyph name="semicolon" format="2">
	<advance width="226"/>
	<unicode hex="003B"/>
	<outline>
		<contour>
			<point x="159" y="437" type="curve"/>
			<point x="159" y="437" type="line"/>
			<point x="176" y="437"/>
			<point x="192" y="454"/>
			<point x="192" y="472" type="curve"/>
			<point x="192" y="486"/>
			<point x="181" y="497"/>
			<point x="166" y="497" type="curve"/>
			<point x="146" y="497"/>
			<point x="132" y="480"/>
			<point x="132" y="465" type="curve"/>
			<point x="132" y="449"/>
			<point x="142" y="437"/>
		</contour>
		<contour>
			<point x="-9" y="-103" type="curve"/>
			<point x="15" y="-124" type="line"/>
			<point x="71" y="-65"/>
			<point x="100" y="-17"/>
			<point x="100" y="18" type="curve"/>
			<point x="100" y="37"/>
			<point x="89" y="48"/>
			<point x="72" y="48" type="curve"/>
			<point x="53" y="48"/>
			<point x="38" y="32"/>
			<point x="38" y="13" type="curve"/>
			<point x="38" y="-2"/>
			<point x="48" y="-11"/>
			<point x="64" y="-11" type="curve"/>
			<point x="50" y="-39"/>
			<point x="23" y="-73"/>
		</contour>
	</outline>
</glyph>
<glyph name="question" format="2">
	<advance width="552"/>
	<unicode hex="003F"/>
	<outline>
		<contour>
			<point x="265" y="356" type="curve"/>
			<point x="232" y="193" type="line"/>
			<point x="271" y="193" type="line"/>
			<point x="298" y="326" type="line"/>
			<point x="422" y="347"/>
			<point x="539" y="432"/>
			<point x="539" y="547" type="curve"/>
			<point x="539" y="632"/>
			<point x="473" y="699"/>
			<point x="381" y="699" type="curve"/>
			<point x="293" y="699"/>
			<point x="212" y="662"/>
			<point x="134" y="585" type="curve"/>
			<point x="157" y="558" type="line"/>
			<point x="221" y="628"/>
			<point x="294" y="663"/>
			<point x="377" y="663" type="curve"/>
			<point x="451" y="663"/>
			<point x="502" y="611"/>
			<point x="502" y="543" type="curve"/>
			<point x="502" y="447"/>
			<point x="397" y="366"/>
		</contour>
		<contour>
			<point x="216" y="-12" type="curve"/>
			<point x="216" y="-12" type="line"/>
			<point x="232" y="-12"/>
			<point x="248" y="4"/>
			<point x="248" y="22" type="curve"/>
			<point x="248" y="36"/>
			<point x="238" y="48"/>
			<point x="222" y="48" type="curve"/>
			<point x="203" y="48"/>
			<point x="188" y="29"/>
			<point x="188" y="14" type="curve"/>
			<point x="188" y="-1"/>
			<point x="199" y="-12"/>
		</contour>
	</outline>
</glyph>
<glyph name="C" format="2">
	<advance width="755"/>
	<unicode hex="0043"/>
	<anchor x="513" y="687" name="top"/>
	<anchor x="374" y="0" name="bottom"/>
	<outline>
		<contour>
			<point x="376" y="-12" type="curve"/>
			<point x="376" y="-12" type="line"/>
			<point x="466" y="-12"/>
			<point x="574" y="33"/>
			<point x="646" y="92" type="curve"/>
			<point x="623" y="120" type="line"/>
			<point x="557" y="64"/>
			<point x="458" y="24"/>
			<point x="378" y="24" type="curve"/>
			<point x="246" y="24"/>
			<point x="127" y="134"/>
			<point x="127" y="289" type="curve"/>
			<point x="127" y="481"/>
			<point x="311" y="663"/>
			<point x="510" y="663" type="curve"/>
			<point x="604" y="663"/>
			<point x="677" y="622"/>
			<point x="719" y="570" type="curve"/>
			<point x="748" y="593" type="line"/>
			<point x="697" y="655"/>
			<point x="613" y="699"/>
			<point x="511" y="699" type="curve"/>
			<point x="293" y="699"/>
			<point x="91" y="499"/>
			<point x="91" y="286" type="curve"/>
			<point x="91" y="110"/>
			<point x="228" y="-12"/>
		</contour>
	</outline>
</glyph>
<glyph name="K" format="2">
	<advance width="670"/>
	<unicode hex="004B"/>
	<anchor x="279" y="0" name="bottom"/>
	<outline>
		<contour>
			<point x="186" y="687" type="line"/>
			<point x="43" y="0" type="line"/>
			<point x="79" y="0" type="line"/>
			<point x="123" y="205" type="line"/>
			<point x="285" y="349" type="line"/>
			<point x="498" y="0" type="line"/>
			<point x="543" y="0" type="line"/>
			<point x="315" y="376" type="line"/>
			<point x="665" y="687" type="line"/>
			<point x="616" y="687" type="line"/>
			<point x="132" y="257" type="line"/>
			<point x="222" y="687" type="line"/>
		</contour>
	</outline>
</glyph>
<glyph name="Q" format="2">
	<advance width="858"/>
	<unicode hex="0051"/>
	<anchor x="515" y="687" name="top"/>
	<outline>
		<contour>
			<point x="479" y="210" type="line"/>
			<point x="678" y="0" type="line"/>
			<point x="703" y="24" type="line"/>
			<point x="504" y="234" type="line"/>
		</contour>
		<contour>
			<point x="375" y="-12" type="curve"/>
			<point x="375" y="-12" type="line"/>
			<point x="593" y="-12"/>
			<point x="804" y="194"/>
			<point x="804" y="410" type="curve"/>
			<point x="804" y="572"/>
			<point x="685" y="699"/>
			<point x="518" y="699" type="curve"/>
			<point x="303" y="699"/>
			<point x="88" y="489"/>
			<point x="88" y="272" type="curve"/>
			<point x="88" y="110"/>
			<point x="207" y="-12"/>
		</contour>
		<contour>
			<point x="378" y="24" type="curve"/>
			<point x="378" y="24" type="line"/>
			<point x="229" y="24"/>
			<point x="124" y="132"/>
			<point x="124" y="276" type="curve"/>
			<point x="124" y="472"/>
			<point x="320" y="663"/>
			<point x="514" y="663" type="curve"/>
			<point x="663" y="663"/>
			<point x="769" y="551"/>
			<point x="769" y="408" type="curve"/>
			<point x="769" y="215"/>
			<point x="575" y="24"/>
		</contour>
	</outline>
</glyph>
<glyph name="S" format="2">
	<advance width="653"/>
	<unicode hex="0053"/>
	<anchor x="425" y="687" name="top"/>
	<anchor x="284" y="0" name="bottom"/>
	<outline>
		<contour>
			<point x="288" y="-11" type="curve"/>
			<point x="288" y="-11" type="line"/>
			<point x="437" y="-11"/>
			<point x="562" y="89"/>
			<point x="562" y="208" type="curve"/>
			<point x="562" y="294"/>
			<point x="502" y="327"/>
			<point x="368" y="365" type="curve"/>
			<point x="265" y="394"/>
			<point x="191" y="415"/>
			<point x="191" y="490" type="curve"/>
			<point x="191" y="584"/>
			<point x="293" y="664"/>
			<point x="415" y="664" type="curve"/>
			<point x="492" y="664"/>
			<point x="564" y="629"/>
			<point x="608" y="575" type="curve"/>
			<point x="634" y="601" type="line"/>
			<point x="579" y="663"/>
			<point x="500" y="700"/>
			<point x="417" y="700" type="curve"/>
			<point x="275" y="700"/>
			<point x="155" y="600"/>
			<point x="155" y="481" type="curve"/>
			<point x="155" y="397"/>
			<point x="219" y="369"/>
			<point x="350" y="332" type="curve"/>
			<point x="448" y="305"/>
			<point x="525" y="282"/>
			<point x="525" y="200" type="curve"/>
			<point x="525" y="105"/>
			<point x="418" y="25"/>
			<point x="290" y="25" type="curve"/>
			<point x="207" y="25"/>
			<point x="117" y="59"/>
			<point x="65" y="125" type="curve"/>
			<point x="40" y="99" type="line"/>
			<point x="99" y="26"/>
			<point x="196" y="-11"/>
		</contour>
	</outline>
</glyph>
<glyph name="U" format="2">
	<advance width="712"/>
	<unicode hex="0055"/>
	<anchor x="440" y="687" name="top"/>
	<anchor x="312" y="0" name="bottom"/>
	<outline>
		<contour>
			<point x="303" y="-12" type="curve"/>
			<point x="303" y="-12" type="line"/>
			<point x="457" y="-12"/>
			<point x="590" y="102"/>
			<point x="623" y="264" type="curve"/>
			<point x="711" y="687" type="line"/>
			<point x="675" y="687" type="line"/>
			<point x="588" y="266" type="line" smooth="yes"/>
			<point x="559" y="125"/>
			<point x="441" y="24"/>
			<point x="305" y="24" type="curve"/>
			<point x="171" y="24"/>
			<point x="98" y="123"/>
			<point x="127" y="264" type="curve"/>
			<point x="215" y="687" type="line"/>
			<point x="179" y="687" type="line"/>
			<point x="92" y="266" type="line" smooth="yes"/>
			<point x="58" y="104"/>
			<point x="145" y="-12"/>
		</contour>
	</outline>
</glyph>
<glyph name="underscore" format="2">
	<advance width="715"/>
	<unicode hex="005F"/>
	<outline>
		<contour>
			<point x="-13" y="-91" type="line"/>
			<point x="-21" y="-127" type="line"/>
			<point x="575" y="-127" type="line"/>
			<point x="583" y="-91" type="line"/>
		</contour>
	</outline>
</glyph>
<glyph name="grave" format="2">
	<advance width="258"/>
	<unicode hex="0060"/>
	<anchor x="277" y="704" name="top"/>
	<anchor x="239" y="517" name="_top"/>
	<outline>
		<contour>
			<point x="140" y="709" type="line"/>
			<point x="231" y="576" type="line"/>
			<point x="278" y="576" type="line"/>
			<point x="182" y="718" type="line"/>
		</contour>
	</outline>
</glyph>
<glyph name="c" format="2">
	<advance width="532"/>
	<unicode hex="0063"/>
	<anchor x="354" y="517" name="top"/>
	<anchor x="253" y="0" name="bottom"/>
	<outline>
		<contour>
			<point x="255" y="-12" type="curve"/>
			<point x="255" y="-12" type="line"/>
			<point x="315" y="-12"/>
			<point x="394" y="19"/>
			<point x="446" y="63" type="curve"/>
			<point x="424" y="90" type="line"/>
			<point x="378" y="51"/>
			<point x="308" y="24"/>
			<point x="257" y="24" type="curve"/>
			<point x="153" y="24"/>
			<point x="80" y="96"/>
			<point x="80" y="198" type="curve"/>
			<point x="80" y="358"/>
			<point x="208" y="493"/>
			<point x="360" y="493" type="curve"/>
			<point x="411" y="493"/>
			<point x="467" y="466"/>
			<point x="496" y="429" type="curve"/>
			<point x="525" y="452" type="line"/>
			<point x="489" y="497"/>
			<point x="422" y="529"/>
			<point x="362" y="529" type="curve"/>
			<point x="189" y="529"/>
			<point x="44" y="376"/>
			<point x="44" y="195" type="curve"/>
			<point x="44" y="74"/>
			<point x="131" y="-12"/>
		</contour>
	</outline>
</glyph>
<glyph name="v" format="2">
	<advance width="584"/>
	<unicode hex="0076"/>
	<outline>
		<contour>
			<point x="98" y="517" type="line"/>
			<point x="227" y="0" type="line"/>
			<point x="249" y="0" type="line"/>
			<point x="594" y="517" type="line"/>
			<point x="553" y="517" type="line"/>
			<point x="249" y="61" type="line"/>
			<point x="135" y="517" type="line"/>
		</contour>
	</outline>
</glyph>
<glyph name="w" format="2">
	<advance width="815"/>
	<unicode hex="0077"/>
	<anchor x="462" y="517" name="top"/>
	<outline>
		<contour>
			<point x="99" y="517" type="line"/>
			<point x="161" y="0" type="line"/>
			<point x="206" y="0" type="line"/>
			<point x="448" y="450" type="line"/>
			<point x="502" y="0" type="line"/>
			<point x="547" y="0" type="line"/>
			<point x="824" y="517" type="line"/>
			<point x="787" y="517" type="line"/>
			<point x="534" y="48" type="line"/>
			<point x="477" y="517" type="line"/>
			<point x="446" y="517" type="line"/>
			<point x="193" y="48" type="line"/>
			<point x="136" y="517" type="line"/>
		</contour>
	</outline>
</glyph>
<glyph name="braceright" format="2">
	<advance width="439"/>
	<unicode hex="007D"/>
	<outline>
		<contour>
			<point x="-14" y="-131" type="curve"/>
			<point x="-14" y="-166" type="line"/>
			<point x="121" y="-151"/>
			<point x="183" y="-104"/>
			<point x="205" y="2" type="curve"/>
			<point x="234" y="143" type="line" smooth="yes"/>
			<point x="250" y="217"/>
			<point x="290" y="248"/>
			<point x="371" y="248" type="curve"/>
			<point x="375" y="284" type="line"/>
			<point x="309" y="284"/>
			<point x="280" y="303"/>
			<point x="280" y="350" type="curve"/>
			<point x="280" y="385"/>
			<point x="319" y="525"/>
			<point x="319" y="574" type="curve"/>
			<point x="319" y="648"/>
			<point x="271" y="684"/>
			<point x="162" y="697" type="curve"/>
			<point x="154" y="662" type="line"/>
			<point x="244" y="652"/>
			<point x="283" y="623"/>
			<point x="283" y="564" type="curve"/>
			<point x="283" y="517"/>
			<point x="243" y="389"/>
			<point x="243" y="337" type="curve"/>
			<point x="243" y="299"/>
			<point x="259" y="277"/>
			<point x="294" y="267" type="curve"/>
			<point x="239" y="251"/>
			<point x="214" y="219"/>
			<point x="200" y="152" type="curve"/>
			<point x="171" y="9" type="line" smooth="yes"/>
			<point x="153" y="-78"/>
			<point x="99" y="-119"/>
		</contour>
	</outline>
</glyph>
<glyph name="sterling" format="2">
	<advance width="647"/>
	<unicode hex="00A3"/>
	<outline>
		<contour>
			<point x="40" y="18" type="line"/>
			<point x="36" y="0" type="line"/>
			<point x="504" y="0" type="line"/>
			<point x="512" y="36" type="line"/>
			<point x="115" y="36" type="line"/>
			<point x="124" y="24" type="line"/>
			<point x="214" y="462" type="line" smooth="yes"/>
			<point x="239" y="579"/>
			<point x="328" y="663"/>
			<point x="429" y="663" type="curve"/>
			<point x="509" y="663"/>
			<point x="567" y="625"/>
			<point x="584" y="558" type="curve"/>
			<point x="612" y="578" type="line"/>
			<point x="592" y="653"/>
			<point x="525" y="699"/>
			<point x="431" y="699" type="curve"/>
			<point x="311" y="699"/>
			<point x="208" y="602"/>
			<point x="179" y="464" type="curve"/>
			<point x="90" y="36" type="line"/>
		</contour>
		<contour>
			<point x="102" y="313" type="line"/>
			<point x="94" y="277" type="line"/>
			<point x="389" y="277" type="line"/>
			<point x="397" y="313" type="line"/>
		</contour>
	</outline>
</glyph>
<glyph name="registered" format="2">
	<advance width="659"/>
	<unicode hex="00AE"/>
	<outline>
		<contour>
			<point x="315" y="184" type="curve"/>
			<point x="315" y="184" type="line"/>
			<point x="468" y="184"/>
			<point x="617" y="327"/>
			<point x="617" y="479" type="curve"/>
			<point x="617" y="591"/>
			<point x="535" y="675"/>
			<point x="417" y="675" type="curve"/>
			<point x="262" y="675"/>
			<point x="114" y="534"/>
			<point x="114" y="381" type="curve"/>
			<point x="114" y="269"/>
			<point x="196" y="184"/>
		</contour>
		<contour>
			<point x="322" y="220" type="curve"/>
			<point x="322" y="220" type="line"/>
			<point x="221" y="220"/>
			<point x="151" y="292"/>
			<point x="151" y="387" type="curve"/>
			<point x="151" y="520"/>
			<point x="278" y="639"/>
			<point x="410" y="639" type="curve"/>
			<point x="511" y="639"/>
			<point x="581" y="567"/>
			<point x="581" y="473" type="curve"/>
			<point x="581" y="345"/>
			<point x="458" y="220"/>
		</contour>
		<contour>
			<point x="352" y="398" type="line"/>
			<point x="410" y="280" type="line"/>
			<point x="449" y="280" type="line"/>
			<point x="391" y="398" type="line"/>
		</contour>
		<contour>
			<point x="376" y="421" type="curve"/>
			<point x="294" y="421" type="line"/>
			<point x="321" y="548" type="line"/>
			<point x="403" y="548" type="line" smooth="yes"/>
			<point x="445" y="548"/>
			<point x="473" y="530"/>
			<point x="473" y="498" type="curve"/>
			<point x="473" y="449"/>
			<point x="429" y="421"/>
		</contour>
		<contour>
			<point x="293" y="580" type="line"/>
			<point x="231" y="280" type="line"/>
			<point x="265" y="280" type="line"/>
			<point x="287" y="388" type="line"/>
			<point x="375" y="388" type="line" smooth="yes"/>
			<point x="444" y="388"/>
			<point x="507" y="438"/>
			<point x="507" y="504" type="curve"/>
			<point x="507" y="550"/>
			<point x="470" y="580"/>
			<point x="415" y="580" type="curve"/>
		</contour>
	</outline>
</glyph>
<glyph name="macron" format="2">
	<advance width="428"/>
	<unicode hex="00AF"/>
	<anchor x="304" y="704" name="top"/>
	<anchor x="266" y="517" name="_top"/>
	<outline>
		<contour>
			<point x="138" y="639" type="line"/>
			<point x="131" y="603" type="line"/>
			<point x="441" y="603" type="line"/>
			<point x="448" y="639" type="line"/>
		</contour>
	</outline>
</glyph>
<glyph name="Eth" format="2">
	<advance width="828"/>
	<unicode hex="00D0"/>
	<outline>
		<contour>
			<point x="97" y="368" type="line"/>
			<point x="90" y="332" type="line"/>
			<point x="438" y="332" type="line"/>
			<point x="446" y="368" type="line"/>
		</contour>
		<contour>
			<point x="251" y="687" type="line"/>
			<point x="108" y="0" type="line"/>
			<point x="345" y="0" type="line" smooth="yes"/>
			<point x="578" y="0"/>
			<point x="775" y="192"/>
			<point x="775" y="421" type="curve"/>
			<point x="775" y="577"/>
			<point x="655" y="687"/>
			<point x="485" y="687" type="curve"/>
		</contour>
		<contour>
			<point x="349" y="36" type="curve"/>
			<point x="152" y="36" type="line"/>
			<point x="280" y="651" type="line"/>
			<point x="480" y="651" type="line" smooth="yes"/>
			<point x="632" y="651"/>
			<point x="739" y="554"/>
			<point x="739" y="416" type="curve"/>
			<point x="739" y="210"/>
			<point x="561" y="36"/>
		</contour>
	</outline>
</glyph>
<glyph name="thorn" format="2">
	<advance width="592"/>
	<unicode hex="00FE"/>
	<outline>
		<contour>
			<point x="159" y="699" type="line"/>
			<point x="-22" y="-172" type="line"/>
			<point x="14" y="-172" type="line"/>
			<point x="195" y="699" type="line"/>
		</contour>
		<contour>
			<point x="256" y="-12" type="curve"/>
			<point x="256" y="-12" type="line"/>
			<point x="402" y="-12"/>
			<point x="548" y="153"/>
			<point x="548" y="318" type="curve"/>
			<point x="548" y="442"/>
			<point x="471" y="529"/>
			<point x="363" y="529" type="curve"/>
			<point x="200" y="529"/>
			<point x="62" y="374"/>
			<point x="62" y="190" type="curve"/>
			<point x="62" y="63"/>
			<point x="134" y="-12"/>
		</contour>
		<contour>
			<point x="251" y="24" type="curve"/>
			<point x="251" y="24" type="line"/>
			<point x="155" y="24"/>
			<point x="98" y="86"/>
			<point x="98" y="192" type="curve"/>
			<point x="98" y="355"/>
			<point x="215" y="493"/>
			<point x="354" y="493" type="curve"/>
			<point x="446" y="493"/>
			<point x="511" y="419"/>
			<point x="511" y="314" type="curve"/>
			<point x="511" y="169"/>
			<point x="381" y="24"/>
		</contour>
	</outline>
</glyph>
<glyph name="dcaron" format="2">
	<advance width="680"/>
	<unicode hex="010F"/>
	<outline>
		<contour>
			<point x="230" y="-12" type="curve"/>
			<point x="230" y="-12" type="line"/>
			<point x="393" y="-12"/>
			<point x="530" y="145"/>
			<point x="530" y="331" type="curve"/>
			<point x="530" y="455"/>
			<point x="460" y="529"/>
			<point x="342" y="529" type="curve"/>
			<point x="193" y="529"/>
			<point x="44" y="365"/>
			<point x="44" y="200" type="curve"/>
			<point x="44" y="76"/>
			<point x="121" y="-12"/>
		</contour>
		<contour>
			<point x="237" y="24" type="curve"/>
			<point x="237" y="24" type="line"/>
			<point x="145" y="24"/>
			<point x="80" y="98"/>
			<point x="80" y="202" type="curve"/>
			<point x="80" y="348"/>
			<point x="208" y="493"/>
			<point x="335" y="493" type="curve"/>
			<point x="434" y="493"/>
			<point x="493" y="429"/>
			<point x="493" y="321" type="curve"/>
			<point x="493" y="160"/>
			<point x="376" y="24"/>
		</contour>
		<contour>
			<point x="578" y="699" type="line"/>
			<point x="433" y="0" type="line"/>
			<point x="469" y="0" type="line"/>
			<point x="614" y="699" type="line"/>
		</contour>
		<contour>
			<point x="655" y="548" type="curve"/>
			<point x="679" y="527" type="line"/>
			<point x="735" y="586"/>
			<point x="764" y="634"/>
			<point x="764" y="669" type="curve"/>
			<point x="764" y="688"/>
			<point x="753" y="699"/>
			<point x="736" y="699" type="curve"/>
			<point x="717" y="699"/>
			<point x="702" y="683"/>
			<point x="702" y="664" type="curve"/>
			<point x="702" y="649"/>
			<point x="712" y="639"/>
			<point x="728" y="640" type="curve"/>
			<point x="714" y="612"/>
			<point x="687" y="578"/>
		</contour>
	</outline>
</glyph>
<glyph name="lcaron" format="2">
	<advance width="209"/>
	<unicode hex="013E"/>
	<outline>
		<contour>
			<point x="186" y="548" type="curve"/>
			<point x="210" y="527" type="line"/>
			<point x="266" y="586"/>
			<point x="295" y="634"/>
			<point x="295" y="669" type="curve"/>
			<point x="295" y="688"/>
			<point x="284" y="699"/>
			<point x="267" y="699" type="curve"/>
			<point x="248" y="699"/>
			<point x="233" y="683"/>
			<point x="233" y="664" type="curve"/>
			<point x="233" y="649"/>
			<point x="243" y="639"/>
			<point x="259" y="640" type="curve"/>
			<point x="245" y="612"/>
			<point x="218" y="578"/>
		</contour>
		<contour>
			<point x="158" y="699" type="line"/>
			<point x="13" y="0" type="line"/>
			<point x="49" y="0" type="line"/>
			<point x="194" y="699" type="line"/>
		</contour>
	</outline>
</glyph>
<glyph name="OE" format="2">
	<advance width="1042"/>
	<unicode hex="0152"/>
	<outline>
		<contour>
			<point x="89" y="277" type="curve"/>
			<point x="89" y="277" type="line"/>
			<point x="89" y="117"/>
			<point x="211" y="0"/>
			<point x="378" y="0" type="curve"/>
			<point x="912" y="0" type="line"/>
			<point x="920" y="36" type="line"/>
			<point x="505" y="36" type="line"/>
			<point x="566" y="332" type="line"/>
			<point x="951" y="332" type="line"/>
			<point x="958" y="368" type="line"/>
			<point x="574" y="368" type="line"/>
			<point x="632" y="651" type="line"/>
			<point x="1048" y="651" type="line"/>
			<point x="1055" y="687" type="line"/>
			<point x="518" y="687" type="line" smooth="yes"/>
			<point x="297" y="687"/>
			<point x="89" y="491"/>
		</contour>
		<contour>
			<point x="125" y="280" type="curve"/>
			<point x="125" y="280" type="line"/>
			<point x="125" y="475"/>
			<point x="316" y="651"/>
			<point x="513" y="651" type="curve"/>
			<point x="597" y="651" type="line"/>
			<point x="468" y="36" type="line"/>
			<point x="382" y="36" type="line" smooth="yes"/>
			<point x="231" y="36"/>
			<point x="125" y="139"/>
		</contour>
	</outline>
</glyph>
<glyph name="tcaron" format="2">
	<advance width="451"/>
	<unicode hex="0165"/>
	<anchor x="191" y="0" name="bottom"/>
	<outline>
		<contour>
			<point x="189" y="-12" type="curve"/>
			<point x="189" y="-12" type="line"/>
			<point x="221" y="-12"/>
			<point x="258" y="-1"/>
			<point x="290" y="20" type="curve"/>
			<point x="273" y="51" type="line"/>
			<point x="250" y="35"/>
			<point x="220" y="24"/>
			<point x="193" y="24" type="curve"/>
			<point x="160" y="24"/>
			<point x="140" y="50"/>
			<point x="140" y="89" type="curve"/>
			<point x="140" y="115"/>
			<point x="145" y="126"/>
			<point x="256" y="659" type="curve"/>
			<point x="220" y="659" type="line"/>
			<point x="111" y="135"/>
			<point x="104" y="115"/>
			<point x="104" y="84" type="curve"/>
			<point x="104" y="27"/>
			<point x="136" y="-12"/>
		</contour>
		<contour>
			<point x="99" y="517" type="line"/>
			<point x="92" y="481" type="line"/>
			<point x="355" y="481" type="line"/>
			<point x="362" y="517" type="line"/>
		</contour>
		<contour>
			<point x="426" y="548" type="curve"/>
			<point x="450" y="527" type="line"/>
			<point x="506" y="586"/>
			<point x="535" y="634"/>
			<point x="535" y="669" type="curve"/>
			<point x="535" y="688"/>
			<point x="524" y="699"/>
			<point x="507" y="699" type="curve"/>
			<point x="488" y="699"/>
			<point x="473" y="683"/>
			<point x="473" y="664" type="curve"/>
			<point x="473" y="649"/>
			<point x="483" y="639"/>
			<point x="499" y="640" type="curve"/>
			<point x="485" y="612"/>
			<point x="458" y="578"/>
		</contour>
	</outline>
</glyph>
<glyph name="tilde" format="2">
	<advance width="412"/>
	<unicode hex="02DC"/>
	<anchor x="299" y="704" name="top"/>
	<anchor x="260" y="517" name="_top"/>
	<outline>
		<contour>
			<point x="341" y="586" type="curve"/>
			<point x="341" y="586" type="line"/>
			<point x="389" y="586"/>
			<point x="429" y="625"/>
			<point x="452" y="693" type="curve"/>
			<point x="417" y="702" type="line"/>
			<point x="398" y="652"/>
			<point x="370" y="622"/>
			<point x="343" y="622" type="curve"/>
			<point x="303" y="622"/>
			<point x="288" y="688"/>
			<point x="228" y="688" type="curve"/>
			<point x="181" y="688"/>
			<point x="140" y="649"/>
			<point x="117" y="581" type="curve"/>
			<point x="152" y="572" type="line"/>
			<point x="170" y="622"/>
			<point x="199" y="652"/>
			<point x="226" y="652" type="curve"/>
			<point x="266" y="652"/>
			<point x="281" y="586"/>
		</contour>
	</outline>
</glyph>
<glyph name="commaaccentcomb" format="2">
	<advance width="0"/>
	<unicode hex="0326"/>
	<anchor x="-141" y="0" name="_bottom"/>
	<anchor x="-36" y="517" name="_top"/>
	<outline>
		<contour>
			<point x="-243" y="-248" type="curve"/>
			<point x="-219" y="-269" type="line"/>
			<point x="-163" y="-210"/>
			<point x="-134" y="-162"/>
			<point x="-134" y="-127" type="curve"/>
			<point x="-134" y="-108"/>
			<point x="-145" y="-97"/>
			<point x="-162" y="-97" type="curve"/>
			<point x="-181" y="-97"/>
			<point x="-196" y="-113"/>
			<point x="-196" y="-132" type="curve"/>
			<point x="-196" y="-147"/>
			<point x="-186" y="-157"/>
			<point x="-170" y="-156" type="curve"/>
			<point x="-184" y="-184"/>
			<point x="-211" y="-218"/>
		</contour>
	</outline>
</glyph>
<glyph name="bullet" format="2">
	<advance width="351"/>
	<unicode hex="2022"/>
	<outline>
		<contour>
			<point x="166" y="196" type="curve"/>
			<point x="166" y="196" type="line"/>
			<point x="227" y="196"/>
			<point x="287" y="253"/>
			<point x="287" y="316" type="curve"/>
			<point x="287" y="363"/>
			<point x="252" y="399"/>
			<point x="203" y="399" type="curve"/>
			<point x="141" y="399"/>
			<point x="81" y="341"/>
			<point x="81" y="280" type="curve"/>
			<point x="81" y="232"/>
			<point x="116" y="196"/>
		</contour>
	</outline>
</glyph>
<glyph name="perthousand" format="2">
	<advance width="1218"/>
	<unicode hex="2030"/>
	<outline>
		<contour>
			<point x="719" y="687" type="line"/>
			<point x="106" y="0" type="line"/>
			<point x="155" y="0" type="line"/>
			<point x="768" y="687" type="line"/>
		</contour>
		<contour>
			<point x="555" y="-10" type="curve"/>
			<point x="555" y="-10" type="line"/>
			<point x="660" y="-10"/>
			<point x="740" y="98"/>
			<point x="740" y="206" type="curve"/>
			<point x="740" y="283"/>
			<point x="695" y="334"/>
			<point x="622" y="334" type="curve"/>
			<point x="516" y="334"/>
			<point x="439" y="228"/>
			<point x="439" y="117" type="curve"/>
			<point x="439" y="40"/>
			<point x="483" y="-10"/>
		</contour>
		<contour>
			<point x="558" y="26" type="curve"/>
			<point x="558" y="26" type="line"/>
			<point x="506" y="26"/>
			<point x="475" y="64"/>
			<point x="475" y="121" type="curve"/>
			<point x="475" y="209"/>
			<point x="536" y="298"/>
			<point x="619" y="298" type="curve"/>
			<point x="672" y="298"/>
			<point x="704" y="260"/>
			<point x="704" y="202" type="curve"/>
			<point x="704" y="119"/>
			<point x="643" y="26"/>
		</contour>
		<contour>
			<point x="248" y="349" type="curve"/>
			<point x="248" y="349" type="line"/>
			<point x="354" y="349"/>
			<point x="433" y="458"/>
			<point x="433" y="565" type="curve"/>
			<point x="433" y="635"/>
			<point x="393" y="693"/>
			<point x="315" y="693" type="curve"/>
			<point x="210" y="693"/>
			<point x="131" y="585"/>
			<point x="131" y="476" type="curve"/>
			<point x="131" y="399"/>
			<point x="176" y="349"/>
		</contour>
		<contour>
			<point x="251" y="385" type="curve"/>
			<point x="251" y="385" type="line"/>
			<point x="199" y="385"/>
			<point x="167" y="423"/>
			<point x="167" y="480" type="curve"/>
			<point x="167" y="563"/>
			<point x="228" y="657"/>
			<point x="312" y="657" type="curve"/>
			<point x="368" y="657"/>
			<point x="396" y="615"/>
			<point x="396" y="560" type="curve"/>
			<point x="396" y="477"/>
			<point x="335" y="385"/>
		</contour>
		<contour>
			<point x="936" y="-10" type="curve"/>
			<point x="936" y="-10" type="line"/>
			<point x="1041" y="-10"/>
			<point x="1121" y="97"/>
			<point x="1121" y="206" type="curve"/>
			<point x="1121" y="283"/>
			<point x="1076" y="334"/>
			<point x="1003" y="334" type="curve"/>
			<point x="897" y="334"/>
			<point x="820" y="228"/>
			<point x="820" y="117" type="curve"/>
			<point x="820" y="40"/>
			<point x="864" y="-10"/>
		</contour>
		<contour>
			<point x="939" y="26" type="curve"/>
			<point x="939" y="26" type="line"/>
			<point x="887" y="26"/>
			<point x="856" y="64"/>
			<point x="856" y="121" type="curve"/>
			<point x="856" y="209"/>
			<point x="917" y="298"/>
			<point x="1000" y="298" type="curve"/>
			<point x="1053" y="298"/>
			<point x="1085" y="260"/>
			<point x="1085" y="202" type="curve"/>
			<point x="1085" y="119"/>
			<point x="1024" y="26"/>
		</contour>
	</outline>
</glyph>
<glyph name="a.alt" format="2">
	<advance width="536"/>
	<anchor x="328" y="517" name="top"/>
	<anchor x="421" y="0" name="bottom"/>
	<outline>
		<contour>
			<point x="385" y="0" type="curve"/>
			<point x="385" y="0" type="line"/>
			<point x="421" y="0" type="line"/>
			<point x="486" y="311"/>
			<point x="493" y="331"/>
			<point x="493" y="370" type="curve"/>
			<point x="493" y="465"/>
			<point x="435" y="529"/>
			<point x="330" y="529" type="curve"/>
			<point x="277" y="529"/>
			<point x="207" y="513"/>
			<point x="143" y="480" type="curve"/>
			<point x="154" y="447" type="line"/>
			<point x="208" y="476"/>
			<point x="269" y="493"/>
			<point x="323" y="493" type="curve"/>
			<point x="421" y="493"/>
			<point x="456" y="434"/>
			<point x="456" y="365" type="curve"/>
			<point x="456" y="329"/>
			<point x="452" y="320"/>
		</contour>
		<contour>
			<point x="181" y="-12" type="curve"/>
			<point x="181" y="-12" type="line"/>
			<point x="268" y="-12"/>
			<point x="389" y="35"/>
			<point x="428" y="122" type="curve"/>
			<point x="419" y="163" type="line"/>
			<point x="380" y="70"/>
			<point x="267" y="24"/>
			<point x="187" y="24" type="curve"/>
			<point x="112" y="24"/>
			<point x="59" y="66"/>
			<point x="59" y="127" type="curve"/>
			<point x="59" y="221"/>
			<point x="158" y="289"/>
			<point x="270" y="289" type="curve"/>
			<point x="333" y="289"/>
			<point x="401" y="269"/>
			<point x="452" y="249" type="curve"/>
			<point x="456" y="283" type="line"/>
			<point x="400" y="307"/>
			<point x="330" y="325"/>
			<point x="267" y="325" type="curve"/>
			<point x="137" y="325"/>
			<point x="23" y="241"/>
			<point x="23" y="121" type="curve"/>
			<point x="23" y="41"/>
			<point x="86" y="-12"/>
		</contour>
	</outline>
</glyph>
<glyph name="ae_upper" format="2">
	<advance width="434"/>
	<anchor x="497" y="687" name="_ae_upper"/>
	<outline>
		<contour>
			<point x="477" y="687" type="line"/>
			<point x="-63" y="0" type="line"/>
			<point x="-20" y="0" type="line"/>
			<point x="519" y="687" type="line"/>
		</contour>
		<contour>
			<point x="111" y="211" type="line"/>
			<point x="104" y="175" type="line"/>
			<point x="408" y="175" type="line"/>
			<point x="415" y="211" type="line"/>
		</contour>
	</outline>
</glyph>
<glyph name="capital_V" format="2">
	<advance width="676"/>
	<outline>
		<contour>
			<point x="709" y="687" type="line"/>
			<point x="263" y="0" type="line"/>
			<point x="304" y="0" type="line"/>
			<point x="750" y="687" type="line"/>
		</contour>
		<contour>
			<point x="104" y="687" type="line"/>
			<point x="264" y="0" type="line"/>
			<point x="303" y="0" type="line"/>
			<point x="143" y="687" type="line"/>
		</contour>
	</outline>
</glyph>
<glyph name="k_arms" format="2">
	<advance width="393"/>
	<anchor x="-24" y="125" name="k_arms"/>
	<outline>
		<contour>
			<point x="130" y="255" type="line"/>
			<point x="275" y="0" type="line"/>
			<point x="320" y="0" type="line"/>
			<point x="159" y="280" type="line"/>
			<point x="441" y="517" type="line"/>
			<point x="389" y="517" type="line"/>
			<point x="-14" y="177" type="line"/>
			<point x="-24" y="125" type="line"/>
		</contour>
	</outline>
</glyph>
<glyph name="lowercase_loop_reverse" format="2">
	<advance width="564"/>
	<anchor x="478" y="249" name="_loop_left"/>
	<outline>
		<contour>
			<point x="223" y="-12" type="curve"/>
			<point x="223" y="-12" type="line"/>
			<point x="386" y="-12"/>
			<point x="523" y="145"/>
			<point x="523" y="331" type="curve"/>
			<point x="523" y="455"/>
			<point x="453" y="529"/>
			<point x="335" y="529" type="curve"/>
			<point x="186" y="529"/>
			<point x="37" y="365"/>
			<point x="37" y="200" type="curve"/>
			<point x="37" y="76"/>
			<point x="114" y="-12"/>
		</contour>
		<contour>
			<point x="230" y="24" type="curve"/>
			<point x="230" y="24" type="line"/>
			<point x="138" y="24"/>
			<point x="73" y="98"/>
			<point x="73" y="202" type="curve"/>
			<point x="73" y="348"/>
			<point x="201" y="493"/>
			<point x="328" y="493" type="curve"/>
			<point x="427" y="493"/>
			<point x="486" y="429"/>
			<point x="486" y="321" type="curve"/>
			<point x="486" y="160"/>
			<point x="369" y="24"/>
		</contour>
	</outline>
</glyph>
<glyph name="lowercase_r_shoulder" format="2">
	<advance width="294"/>
	<anchor x="80" y="288" name="_r_shoulder"/>
	<outline>
		<contour>
			<point x="89" y="360" type="curve"/>
			<point x="80" y="288" type="line"/>
			<point x="106" y="407"/>
			<point x="207" y="493"/>
			<point x="324" y="493" type="curve"/>
			<point x="329" y="529" type="line"/>
			<point x="222" y="529"/>
			<point x="113" y="471"/>
		</contour>
	</outline>
</glyph>
<glyph name="thorn_stem" format="2">
	<advance width="239"/>
	<anchor x="138" y="257" name="loop_right"/>
	<outline>
		<contour>
			<point x="193" y="699" type="line"/>
			<point x="12" y="-172" type="line"/>
			<point x="48" y="-172" type="line"/>
			<point x="229" y="699" type="line"/>
		</contour>
	</outline>
</glyph>
